<?xml version="1.0" standalone="no"?>
<!DOCTYPE svg PUBLIC "-//W3C//DTD SVG 20010904//EN"
 "http://www.w3.org/TR/2001/REC-SVG-20010904/DTD/svg10.dtd">
<svg version="1.0" xmlns="http://www.w3.org/2000/svg"
 width="500.000000pt" height="500.000000pt" viewBox="0 0 500.000000 500.000000"
 preserveAspectRatio="xMidYMid meet">
<metadata>
Created by potrace 1.14, written by Peter Selinger 2001-2017
</metadata>
<g transform="translate(0.000000,500.000000) scale(0.100000,-0.100000)"
fill="#000000" stroke="none">
<path d="M2308 4905 c-2 -2 -32 -6 -68 -9 -91 -8 -192 -23 -220 -31 -8 -3 -31
-7 -51 -9 -19 -3 -78 -16 -130 -31 -519 -145 -947 -430 -1281 -855 -61 -79
-128 -176 -128 -189 0 -5 -8 -15 -17 -20 -10 -6 -15 -11 -11 -11 4 0 -3 -16
-17 -35 -63 -94 -190 -386 -230 -530 -9 -33 -19 -67 -22 -75 -3 -8 -7 -19 -8
-25 -17 -72 -29 -133 -30 -145 -1 -8 -5 -31 -9 -50 -35 -167 -42 -571 -12
-725 2 -11 7 -40 10 -65 4 -25 8 -52 10 -60 1 -8 6 -33 10 -55 10 -50 76 -286
84 -300 4 -5 7 -15 8 -21 3 -17 82 -200 116 -269 37 -73 123 -218 155 -261 13
-17 23 -34 23 -37 0 -4 9 -17 19 -29 10 -13 48 -59 82 -103 78 -97 248 -268
349 -351 238 -193 477 -324 785 -429 70 -24 268 -73 325 -80 30 -4 58 -9 61
-10 5 -4 88 -13 184 -21 115 -9 358 -3 455 11 19 2 53 7 75 10 23 3 52 8 65
11 14 3 36 7 50 9 96 16 315 79 387 111 17 8 34 14 37 14 13 0 231 105 234
112 2 5 8 8 14 8 9 0 148 79 158 90 3 3 30 21 60 40 30 19 64 42 75 51 205
169 267 225 365 335 104 115 210 264 298 417 34 59 62 109 62 111 0 2 17 39
37 82 20 43 38 81 38 84 1 3 5 14 9 25 11 27 49 136 74 207 11 32 15 55 10 52
-6 -4 -5 3 1 14 11 20 34 114 45 177 3 17 8 44 11 61 7 47 14 105 21 181 8 86
11 353 4 353 -3 0 -5 13 -4 30 0 16 -3 55 -7 87 -5 32 -11 80 -14 107 -7 53
-8 59 -24 126 -5 25 -12 56 -14 70 -3 14 -10 37 -16 53 -6 15 -9 27 -6 27 8 0
-84 258 -121 337 -8 18 -14 36 -14 39 1 4 -2 10 -7 13 -4 3 -30 49 -57 101
-43 86 -155 264 -197 315 -117 143 -180 213 -251 280 -130 123 -155 145 -167
145 -6 0 -11 4 -11 8 0 5 -21 24 -47 42 -27 19 -50 36 -53 40 -23 25 -240 153
-350 207 -75 36 -258 112 -285 117 -5 2 -41 12 -80 23 -131 40 -266 68 -365
78 -19 2 -48 6 -65 10 -30 6 -411 15 -417 10z m357 -100 c39 -3 86 -8 105 -11
125 -19 216 -37 295 -59 50 -14 97 -27 105 -29 78 -21 269 -101 380 -159 86
-45 273 -165 278 -178 2 -5 8 -9 13 -9 10 0 12 -2 114 -86 163 -134 368 -367
473 -538 7 -12 24 -39 38 -61 37 -59 149 -291 174 -360 49 -134 100 -320 115
-418 20 -122 29 -212 29 -289 1 -38 4 -68 8 -68 3 0 5 -8 3 -17 -2 -10 -6 -76
-9 -148 -3 -71 -7 -139 -10 -151 -2 -11 -7 -46 -10 -77 -4 -32 -13 -85 -22
-120 -8 -34 -16 -71 -18 -82 -2 -11 -11 -47 -20 -80 -10 -33 -20 -67 -21 -75
-19 -82 -114 -300 -195 -445 -67 -119 -163 -258 -245 -355 -57 -68 -247 -255
-292 -290 -26 -19 -51 -39 -57 -45 -35 -32 -184 -135 -196 -135 -5 0 -10 -4
-10 -9 0 -12 -325 -173 -405 -201 -195 -68 -305 -97 -440 -116 -22 -3 -46 -7
-53 -10 -54 -17 -461 -25 -567 -10 -72 10 -111 15 -145 21 -16 3 -42 7 -57 10
-54 8 -82 15 -169 41 -49 14 -96 27 -105 29 -8 2 -69 25 -135 51 -411 164
-766 439 -1018 788 -28 39 -54 73 -58 74 -5 2 -8 8 -8 12 0 5 -14 30 -32 56
-82 122 -241 478 -262 585 -2 13 -13 58 -24 99 -17 66 -27 116 -47 235 -27
165 -22 511 10 683 8 43 17 93 20 112 8 47 43 176 60 221 8 20 11 39 8 43 -4
3 -2 6 4 6 5 0 10 6 10 13 0 16 51 146 69 175 8 12 12 22 9 22 -12 0 109 218
180 325 119 179 319 401 459 510 21 17 48 38 60 49 35 31 242 166 253 166 6 0
13 4 15 8 3 7 173 98 190 101 4 1 31 12 60 25 29 13 82 33 118 46 36 12 72 25
80 28 8 3 20 6 25 7 6 2 46 12 90 24 44 12 91 23 105 25 14 3 25 5 25 6 0 1
11 3 25 5 14 2 41 6 60 9 65 11 115 17 200 22 47 4 86 7 87 8 5 4 209 -3 278
-9z"/>
<path d="M2296 4563 c-2 -2 -14 -6 -27 -8 -63 -12 -112 -75 -116 -152 -7 -110
65 -182 183 -184 33 -1 61 0 64 1 3 1 13 3 24 5 28 5 41 23 42 55 0 36 -11 39
-20 7 -6 -26 -65 -50 -105 -42 -77 15 -132 90 -127 175 3 43 34 109 54 111 4
0 16 3 27 5 43 11 89 5 114 -14 14 -11 25 -25 24 -31 -2 -6 1 -11 7 -11 10 0
11 79 1 82 -13 3 -142 4 -145 1z"/>
<path d="M2589 4548 c5 -14 3 -54 -6 -108 -16 -100 -20 -129 -22 -152 0 -10
-10 -27 -20 -37 -17 -17 -18 -20 -3 -19 9 0 40 -3 67 -6 48 -7 49 -6 27 9 -23
17 -23 24 -6 107 5 24 8 26 27 17 12 -5 38 -39 57 -75 19 -36 39 -68 44 -72 5
-3 59 -17 119 -32 92 -23 106 -25 87 -10 -20 15 -22 22 -15 56 10 44 12 53 14
57 1 1 4 16 6 32 3 17 13 64 24 105 10 41 18 76 17 76 0 1 -21 5 -46 8 -27 4
-40 4 -32 -2 13 -9 13 -70 0 -78 -5 -3 -6 -9 -4 -13 3 -4 -2 -32 -10 -62 -8
-30 -17 -70 -20 -89 -3 -19 -10 -42 -15 -52 -20 -37 -79 12 -133 112 l-26 48
29 22 c32 22 48 72 36 109 -8 27 -48 48 -105 56 -25 3 -57 8 -73 11 -25 5 -26
4 -18 -18z m135 -52 c20 -43 6 -103 -27 -111 -40 -9 -62 0 -62 26 0 13 1 28 4
33 2 5 5 25 7 44 6 60 51 65 78 8z"/>
<path d="M3020 4479 c0 -5 5 -7 10 -4 6 3 10 8 10 11 0 2 -4 4 -10 4 -5 0 -10
-5 -10 -11z"/>
<path d="M1766 4442 c-4 -10 -8 -48 -11 -85 -2 -36 -7 -90 -10 -119 -3 -29 -8
-73 -10 -97 -3 -25 -12 -49 -22 -58 -17 -14 -17 -14 2 -8 11 3 32 9 48 12 25
5 39 23 17 23 -5 0 -10 22 -10 49 0 47 6 56 43 66 4 2 8 3 10 5 1 1 14 4 29 6
24 4 33 -2 63 -44 l35 -50 43 15 c23 8 47 19 52 25 6 7 2 7 -11 -1 -19 -9 -27
-5 -60 32 -22 24 -51 59 -66 78 -116 147 -136 170 -142 151z m53 -124 c36 -49
37 -54 14 -61 -10 -2 -26 -8 -36 -12 -17 -7 -18 -2 -15 54 1 33 4 61 4 61 1 0
16 -19 33 -42z"/>
<path d="M3153 4410 c-18 -11 -34 -28 -34 -37 -4 -48 4 -81 31 -129 19 -31 29
-61 26 -75 -3 -13 -5 -27 -5 -31 -1 -3 -13 -11 -28 -16 -43 -14 -83 18 -83 66
0 26 -3 33 -9 22 -6 -8 -8 -17 -5 -21 2 -4 0 -10 -6 -14 -21 -13 -9 -42 28
-61 51 -28 107 -24 140 10 36 35 33 87 -7 161 -37 68 -39 98 -8 112 17 8 30 7
50 -3 26 -14 31 -24 28 -51 -3 -24 17 -13 23 12 8 32 1 43 -32 57 -49 19 -77
18 -109 -2z"/>
<path d="M1524 4335 c-10 -8 -25 -15 -32 -15 -7 0 -23 -9 -35 -21 -15 -13 -16
-18 -6 -14 21 8 38 -16 112 -156 54 -100 56 -106 39 -123 -11 -11 8 -6 49 15
54 28 62 35 43 37 -24 3 -47 38 -133 197 -26 48 -31 63 -22 77 14 22 11 22
-15 3z"/>
<path d="M3384 4331 c-26 -23 -31 -45 -6 -30 25 16 107 -24 98 -48 -13 -33
-117 -213 -133 -228 -8 -9 -23 -13 -32 -10 -28 11 1 -11 49 -36 25 -13 48 -28
52 -34 4 -5 8 -6 8 -1 0 5 -6 17 -14 25 -13 14 -8 27 37 106 29 50 59 103 67
119 8 16 20 31 27 33 21 8 85 -46 79 -66 -4 -9 2 -7 14 8 11 13 20 26 20 30 0
3 -42 29 -92 56 -51 28 -106 59 -123 71 -29 20 -33 20 -51 5z"/>
<path d="M1298 4208 c-74 -43 -83 -130 -16 -164 17 -9 55 -18 86 -21 64 -5 87
-15 102 -43 14 -25 1 -51 -35 -70 -24 -13 -30 -12 -57 3 -41 23 -43 17 -10
-21 27 -32 27 -32 60 -16 74 37 100 104 63 162 -19 30 -51 43 -126 49 -62 6
-95 24 -95 53 0 40 69 66 99 38 8 -8 7 -1 -3 20 -19 38 -20 38 -68 10z"/>
<path d="M3717 4126 c4 -20 -13 -49 -82 -135 -81 -104 -94 -116 -120 -111 -12
2 -7 -3 60 -55 28 -21 62 -52 77 -69 16 -16 31 -26 35 -23 3 4 1 7 -7 7 -21 0
10 31 48 47 36 15 53 9 91 -31 l24 -25 -28 -56 -27 -57 29 -31 c16 -18 44 -56
62 -84 18 -29 34 -53 36 -53 1 0 0 11 -2 25 -4 20 2 28 31 46 20 11 36 25 36
29 0 5 10 12 22 16 12 3 31 15 42 25 25 24 49 25 42 2 -14 -47 -36 -143 -42
-178 -3 -22 -8 -43 -9 -46 -2 -3 -7 -27 -10 -53 -7 -48 -7 -48 17 -35 12 7 44
27 70 46 26 18 51 33 56 33 5 0 17 8 28 18 10 9 38 28 62 40 36 20 45 22 59
10 12 -9 10 -1 -7 27 -32 55 -40 63 -40 39 0 -13 -18 -33 -47 -55 -75 -53
-133 -89 -133 -81 0 17 61 279 69 298 22 51 -7 42 -142 -43 -131 -82 -138 -85
-152 -67 -24 32 -18 66 33 174 9 19 17 37 17 40 1 3 16 36 33 74 45 96 44 99
-24 69 -22 -9 -43 -17 -49 -19 -5 -1 -39 -15 -75 -31 -36 -17 -87 -38 -113
-48 l-48 -18 -25 25 -25 24 23 30 c143 186 169 215 186 203 20 -14 -45 50 -69
69 -14 11 -16 9 -12 -12z m162 -318 c-12 -23 -23 -45 -25 -47 -5 -6 -34 20
-45 40 -7 15 -3 21 23 33 39 17 62 24 66 21 2 -2 -6 -23 -19 -47z"/>
<path d="M1032 3985 c-40 -40 -72 -76 -72 -80 0 -4 7 -2 15 5 17 14 23 10 79
-46 108 -107 148 -156 143 -175 -4 -13 12 -3 46 30 29 27 62 58 75 69 23 20
22 43 -5 71 -12 11 -13 10 -8 -11 5 -20 -1 -32 -25 -57 -27 -27 -35 -30 -49
-19 -32 25 -81 77 -81 87 0 19 50 49 71 44 21 -6 21 -5 -1 20 l-23 27 -31 -35
c-18 -19 -35 -35 -39 -35 -10 0 -77 67 -77 77 0 4 12 19 26 35 21 21 31 25 45
17 24 -12 24 -4 1 26 l-18 22 -72 -72z"/>
<path d="M2439 3801 c0 -9 -2 -50 -2 -91 l-2 -75 -66 0 -67 1 0 -33 0 -33 52
2 c28 0 58 0 67 -1 13 -1 15 -21 15 -150 l-1 -150 -51 -43 c-191 -163 -279
-233 -289 -233 -5 -1 -14 4 -18 10 -5 5 -6 1 -2 -11 5 -21 2 -25 -99 -107 -22
-18 -58 -48 -81 -67 -60 -51 -131 -110 -205 -171 -36 -29 -67 -56 -70 -59 -3
-3 -59 -50 -125 -105 -66 -55 -122 -102 -125 -105 -3 -3 -40 -34 -82 -69 -43
-35 -78 -65 -78 -68 0 -2 41 25 90 59 50 35 98 68 108 73 9 6 19 13 22 16 3 3
64 45 135 94 72 49 171 117 220 151 50 35 156 107 236 162 l145 100 40 -54
c77 -107 135 -237 159 -359 10 -51 13 -260 4 -316 -11 -70 -17 -104 -19 -104
-1 0 -3 -7 -5 -15 -1 -8 -6 -28 -10 -43 -7 -28 -7 -29 26 -24 63 10 78 16 166
59 103 50 210 149 261 239 18 31 32 59 32 62 0 3 -15 0 -34 -8 -44 -19 -94
-27 -100 -17 -7 12 8 32 35 46 35 17 49 52 37 89 -8 22 -8 43 2 81 7 28 15 60
16 71 1 11 3 20 4 20 1 0 3 8 5 18 5 26 -6 21 -49 -20 l-38 -37 6 40 c4 22 9
51 12 64 8 34 13 94 15 167 1 44 5 61 13 57 19 -11 191 -127 196 -133 3 -3 68
-48 145 -100 77 -52 142 -97 145 -100 3 -3 13 -10 22 -16 10 -5 66 -43 125
-84 60 -41 158 -108 218 -149 61 -41 117 -80 125 -86 25 -18 -22 26 -69 64
-24 19 -48 40 -55 45 -6 6 -38 33 -71 60 -33 28 -65 55 -71 60 -6 6 -30 26
-54 45 -24 19 -54 44 -67 55 -12 11 -36 31 -53 45 -17 14 -41 34 -53 45 -13
11 -42 35 -65 53 -22 19 -51 43 -64 54 -13 11 -43 37 -68 57 -24 20 -52 43
-61 51 -10 8 -24 20 -32 27 -34 27 -226 188 -267 223 -25 21 -73 62 -107 90
l-63 52 0 149 c0 82 3 149 8 150 4 0 34 1 67 2 58 2 60 3 61 30 1 15 -2 28 -5
28 -3 1 -33 2 -66 3 l-60 1 -5 90 c-5 90 -5 90 -32 91 -19 1 -28 -4 -29 -15z
m210 -819 l24 -19 -24 -34 c-77 -111 -144 -135 -259 -92 -69 26 -165 79 -165
92 0 14 86 72 97 65 4 -3 8 -15 8 -27 1 -27 36 -68 73 -84 80 -36 167 12 182
99 7 41 12 41 64 0z"/>
<path d="M824 3753 c-16 -21 -34 -44 -41 -51 -19 -19 -16 -24 6 -12 16 8 33
-1 103 -57 122 -99 149 -125 144 -140 -10 -25 2 -13 68 66 67 80 72 96 36 119
-17 11 -18 10 -11 -10 10 -26 -23 -84 -52 -92 -11 -3 -41 15 -81 47 -34 29
-82 68 -105 86 -33 27 -42 40 -38 58 2 13 3 23 2 23 -2 0 -15 -17 -31 -37z"/>
<path d="M673 3523 c-120 -155 -78 -308 92 -339 82 -15 193 91 211 200 5 34 3
37 -33 53 -21 10 -39 21 -41 26 -2 4 -10 7 -17 7 -15 0 -28 27 -19 41 3 5 3 9
1 9 -3 0 -18 -27 -35 -60 -25 -49 -27 -57 -12 -48 16 10 28 8 69 -12 57 -28
63 -45 29 -92 -28 -40 -89 -67 -136 -61 -54 8 -110 39 -133 76 -44 70 11 182
96 193 6 1 15 2 20 3 9 1 -49 41 -59 41 -3 0 -17 -17 -33 -37z"/>
<path d="M4055 3235 c3 -11 9 -32 12 -47 5 -26 23 -40 23 -19 0 9 96 8 105 0
2 -3 6 -16 9 -29 3 -14 8 -34 11 -45 5 -16 -3 -28 -34 -53 -22 -18 -44 -32
-50 -32 -10 0 -9 -14 3 -42 4 -9 9 -23 10 -32 3 -25 16 -31 16 -9 0 22 26 48
173 166 53 43 97 81 97 85 0 5 -17 9 -37 11 -21 1 -54 4 -73 6 -19 2 -71 6
-115 9 -107 8 -125 12 -142 33 -14 17 -14 17 -8 -2z m275 -75 c0 -3 -20 -21
-44 -38 l-45 -32 -6 22 c-18 62 -21 58 39 57 31 -1 56 -5 56 -9z"/>
<path d="M497 3136 c-20 -62 -21 -76 -4 -53 11 15 22 13 127 -23 171 -59 172
-60 166 -83 -11 -42 14 1 34 57 20 58 20 59 1 41 -19 -16 -24 -16 -128 21
-149 52 -175 63 -168 74 3 5 2 11 -2 13 -5 3 -16 -18 -26 -47z"/>
<path d="M4528 2420 c-13 -14 -206 -84 -265 -96 -6 -1 -19 -6 -29 -12 -15 -8
7 -23 128 -83 91 -45 150 -81 156 -94 8 -16 10 -10 13 33 3 38 1 49 -7 38 -9
-13 -16 -12 -52 4 -42 19 -42 20 -40 66 3 45 5 48 43 61 22 8 47 12 55 10 12
-3 16 7 18 45 1 26 1 48 0 47 -2 0 -11 -9 -20 -19z m-118 -145 l0 -35 -37 16
c-21 9 -45 19 -53 22 -17 7 33 31 68 32 19 0 22 -5 22 -35z"/>
<path d="M680 2407 c0 -17 -4 -18 -135 -38 -87 -13 -114 -26 -136 -64 -14 -26
-15 -38 -5 -86 21 -99 55 -114 216 -94 30 3 60 8 67 10 7 2 20 -3 29 -12 15
-16 16 -14 11 31 -6 48 -17 75 -17 43 0 -17 -11 -21 -85 -33 -143 -24 -194 -9
-199 60 -5 62 42 88 182 101 30 3 58 7 63 10 5 4 12 -1 15 -9 7 -18 25 -11 19
7 -2 7 -6 27 -9 45 -5 36 -16 56 -16 29z"/>
<path d="M4206 2125 c-4 -16 -12 -42 -16 -58 -9 -26 -8 -27 11 -14 17 12 28
12 77 1 31 -8 66 -16 77 -18 79 -17 109 -26 116 -37 11 -19 18 -8 34 52 14 51
13 53 -3 33 -19 -24 -14 -25 -167 11 -84 19 -115 31 -118 43 -2 11 -6 7 -11
-13z"/>
<path d="M595 2025 c-72 -23 -137 -39 -144 -37 -10 3 -12 0 -7 -14 8 -20 14
-42 15 -59 1 -5 7 1 14 14 9 18 34 32 96 53 45 16 85 28 87 26 2 -2 -26 -60
-61 -128 -75 -143 -81 -159 -63 -156 15 2 135 39 219 66 52 16 58 17 73 2 13
-14 13 -9 -2 31 -10 25 -21 50 -25 54 -5 4 -5 0 -2 -8 8 -22 -7 -32 -107 -67
-74 -27 -86 -29 -80 -14 12 30 114 226 128 247 30 42 22 42 -141 -10z"/>
<path d="M4176 1985 c-43 -66 -54 -121 -44 -212 1 -7 5 -13 10 -13 4 0 8 -6 8
-13 0 -16 77 -67 105 -68 87 -5 134 23 175 105 42 83 39 116 -10 131 -23 7
-23 7 -6 -10 40 -40 -5 -141 -73 -163 -32 -10 -56 -8 -103 7 -39 13 -91 58
-83 72 3 4 1 10 -4 13 -15 10 10 85 39 116 20 22 33 27 51 23 30 -7 24 -1 -18
20 -30 16 -32 16 -47 -8z"/>
<path d="M2463 1938 c0 -16 -12 -38 -29 -55 -16 -16 -34 -38 -41 -49 -11 -18
-12 -18 -12 -1 -1 10 -5 16 -10 12 -5 -3 -8 -26 -7 -52 2 -39 8 -51 36 -75 42
-35 53 -36 36 -2 -16 30 -10 67 10 60 9 -3 14 2 14 13 0 26 10 51 21 51 5 0 9
-9 9 -20 0 -11 4 -20 9 -20 13 0 31 -58 24 -76 -5 -14 -3 -14 15 -3 35 22 46
76 27 128 -4 11 -8 11 -20 1 -12 -10 -15 -9 -16 6 -1 11 -1 22 -1 25 1 4 -14
24 -32 45 -33 38 -33 39 -33 12z"/>
<path d="M1916 1830 c-77 -21 -247 -101 -227 -108 8 -3 16 0 20 5 9 13 138 71
176 79 11 2 31 6 45 9 14 3 36 8 50 11 33 7 179 6 191 -1 5 -4 18 -8 29 -10
33 -6 88 -35 116 -61 33 -32 43 -25 12 9 -23 24 -95 67 -120 71 -7 1 -17 4
-23 7 -23 14 -202 6 -269 -11z"/>
<path d="M2760 1843 c-14 -2 -32 -7 -40 -10 -8 -3 -17 -6 -20 -5 -13 2 -86
-57 -108 -88 l-26 -35 39 36 c44 39 95 73 95 63 0 -4 6 -2 13 3 27 23 177 32
252 17 17 -4 39 -8 50 -9 11 -2 21 -4 23 -5 1 -2 5 -3 10 -4 23 -5 88 -30 97
-36 6 -5 12 -8 15 -9 13 0 48 -16 75 -35 21 -14 26 -15 17 -4 -20 25 -124 75
-210 101 -74 22 -214 33 -282 20z"/>
<path d="M845 1737 c6 -15 -2 -20 -132 -86 -59 -30 -107 -49 -117 -45 -20 8
-21 -9 -1 -26 8 -7 15 -19 15 -26 0 -19 17 -17 48 4 15 11 69 41 120 68 76 40
96 47 111 37 15 -9 13 -3 -8 38 -14 27 -29 49 -33 49 -4 0 -5 -6 -3 -13z"/>
<path d="M1940 1735 c-30 -7 -56 -14 -58 -14 -1 0 -14 -4 -30 -7 -98 -23 -330
-98 -341 -111 -3 -3 3 -3 14 1 42 16 235 64 235 59 0 -3 6 -1 13 5 6 5 30 13
52 16 22 3 75 12 119 20 75 13 178 14 238 0 15 -3 31 -6 35 -6 5 0 17 -5 28
-11 11 -6 26 -12 33 -13 33 -6 83 -37 102 -63 19 -28 66 -48 100 -42 35 5 70
25 75 42 10 29 114 75 215 95 72 15 220 7 295 -14 17 -5 38 -8 48 -6 9 1 17
-2 17 -7 0 -5 3 -8 8 -7 8 2 98 -16 105 -22 1 -1 11 -3 22 -5 11 -2 45 -10 75
-18 110 -30 58 -8 -82 36 -210 66 -272 80 -379 83 -155 5 -265 -34 -353 -126
-43 -44 -83 -41 -130 10 -20 22 -40 40 -46 40 -5 0 -10 4 -10 9 0 9 -57 35
-125 55 -54 17 -207 17 -275 1z"/>
<path d="M4042 1672 c-12 -26 -16 -39 -8 -28 15 18 16 18 63 -7 114 -60 132
-71 128 -78 -4 -5 -81 -29 -115 -34 -3 0 -47 -11 -98 -24 -66 -17 -90 -27 -83
-34 6 -6 64 -43 128 -82 95 -56 117 -74 115 -90 -5 -25 -1 -21 33 40 23 41 25
47 8 32 -19 -17 -23 -16 -99 24 -43 22 -83 44 -87 48 -7 7 247 82 281 84 30 1
5 26 -75 72 -114 66 -165 104 -158 115 3 6 3 10 -2 10 -4 0 -18 -22 -31 -48z"/>
<path d="M2037 1623 c-2 -1 -41 -5 -87 -8 -47 -4 -105 -8 -130 -10 -25 -2 -67
-6 -95 -9 -27 -3 -79 -8 -115 -12 -36 -3 -78 -8 -95 -9 -16 -2 -64 -7 -105
-11 -41 -4 -86 -8 -100 -9 -14 -2 -36 -3 -49 -4 -71 -3 42 -24 129 -24 51 0
232 13 240 18 3 1 43 6 90 9 47 4 101 9 120 11 43 5 255 18 290 18 61 0 145
-14 149 -26 8 -23 59 -63 94 -74 19 -6 68 -9 110 -8 83 3 147 30 166 71 15 34
104 44 291 30 168 -12 326 -25 360 -31 109 -17 273 -22 349 -11 48 6 66 15 35
17 -65 3 -115 8 -264 24 -119 13 -160 17 -205 20 -27 2 -75 6 -105 9 -256 25
-348 28 -404 16 -69 -16 -136 -56 -136 -80 0 -16 -7 -20 -32 -21 -128 -4 -174
2 -197 27 -15 15 -14 15 7 5 36 -19 25 5 -13 29 -53 33 -126 49 -216 47 -44
-1 -81 -2 -82 -4z"/>
<path d="M914 1592 c6 -16 1 -24 -23 -36 -16 -9 -31 -19 -33 -23 -7 -18 -162
-113 -175 -109 -9 4 -11 2 -6 -7 100 -156 136 -188 213 -189 44 0 106 31 134
68 21 30 27 87 13 129 -10 31 -103 171 -120 182 -5 3 -6 -3 -3 -15z m82 -147
c14 -77 -20 -137 -96 -168 -61 -25 -117 -1 -144 63 -17 42 -21 37 99 124 l90
65 22 -25 c12 -13 25 -40 29 -59z"/>
<path d="M626 1517 c3 -10 9 -15 12 -12 3 3 0 11 -7 18 -10 9 -11 8 -5 -6z"/>
<path d="M1500 1411 c-7 -13 -7 -22 0 -26 11 -7 11 -8 14 23 3 27 0 28 -14 3z"/>
<path d="M1543 1397 c-13 -18 -31 -43 -40 -56 -14 -19 -14 -23 -3 -19 8 3 14
9 14 14 -1 5 10 20 23 34 24 24 25 24 14 3 -9 -17 -9 -23 0 -23 8 0 7 -5 -2
-16 -12 -14 -11 -16 5 -13 14 3 19 14 21 46 3 58 -7 67 -32 30z"/>
<path d="M1941 1414 c0 -11 3 -14 6 -6 3 7 2 16 -1 19 -3 4 -6 -2 -5 -13z"/>
<path d="M2185 1411 c3 -15 -4 -21 -26 -26 -17 -4 -28 -9 -25 -12 3 -3 1 -14
-5 -24 -10 -20 -9 -21 33 -23 23 -2 27 3 32 35 3 21 9 44 12 53 4 10 1 16 -9
16 -10 0 -15 -7 -12 -19z m-15 -62 c-6 -11 -15 -17 -20 -14 -6 4 -5 14 2 25
16 24 31 15 18 -11z"/>
<path d="M2335 1382 c-8 -52 -8 -52 2 -52 4 -1 12 19 18 44 9 35 9 46 -1 50
-8 3 -14 -11 -19 -42z"/>
<path d="M2567 1423 c-3 -5 -8 -29 -12 -55 -5 -35 -4 -48 5 -48 7 0 10 6 7 14
-3 8 1 22 9 33 14 17 15 15 10 -16 -5 -29 -4 -32 9 -21 8 7 15 23 15 36 0 18
-6 24 -22 24 -17 0 -19 3 -10 12 7 7 12 16 12 20 0 10 -17 10 -23 1z"/>
<path d="M1460 1405 c-10 -12 -10 -15 4 -15 9 0 16 7 16 15 0 8 -2 15 -4 15
-2 0 -9 -7 -16 -15z"/>
<path d="M3821 1342 c-35 -43 -58 -71 -51 -64 26 23 21 25 154 -91 76 -66 86
-76 86 -88 0 -5 -5 -9 -12 -9 -6 0 -8 -3 -5 -7 4 -4 23 11 43 33 20 21 49 53
65 70 30 31 30 31 11 54 l-19 24 0 -28 c0 -18 -10 -37 -28 -52 -32 -27 -21
-31 -95 35 -29 25 -21 47 24 69 26 13 26 15 9 27 -15 11 -21 9 -48 -22 l-30
-35 -37 32 c-21 18 -38 37 -38 43 0 19 50 56 68 50 15 -6 15 -4 -2 15 -11 12
-22 22 -25 21 -3 0 -35 -35 -70 -77z"/>
<path d="M1600 1380 c-10 -7 -11 -10 -2 -10 8 0 10 -8 6 -25 -8 -34 2 -32 20
4 20 37 8 52 -24 31z"/>
<path d="M1643 1384 c3 -3 2 -16 -3 -29 -6 -17 -5 -25 5 -29 8 -3 17 -1 20 4
4 6 1 10 -6 10 -9 0 -9 4 1 15 13 15 6 35 -12 35 -6 0 -9 -3 -5 -6z"/>
<path d="M1688 1360 c-6 -37 -5 -38 30 -32 23 3 28 9 30 33 3 37 -11 38 -26 2
-10 -26 -11 -27 -9 -4 3 36 -20 37 -25 1z"/>
<path d="M1780 1378 c0 -7 -3 -24 -7 -38 -6 -22 -5 -24 10 -11 9 7 15 17 12
21 -3 5 -1 11 5 15 12 7 4 25 -11 25 -5 0 -9 -6 -9 -12z"/>
<path d="M1812 1355 c-2 -19 2 -35 7 -35 5 0 11 16 13 35 2 21 0 35 -7 35 -6
0 -12 -16 -13 -35z"/>
<path d="M1860 1375 c-6 -8 -10 -22 -8 -32 4 -19 38 -31 38 -13 0 6 -5 8 -11
4 -7 -4 -9 2 -7 17 2 16 9 23 21 21 9 -2 17 2 17 8 0 15 -36 12 -50 -5z"/>
<path d="M1923 1360 c-1 -16 2 -32 7 -35 6 -4 10 -3 11 2 0 4 3 20 5 36 3 18
0 27 -8 27 -7 0 -14 -13 -15 -30z"/>
<path d="M1972 1372 c-16 -32 -9 -47 23 -47 26 1 30 5 32 31 2 25 -1 30 -22
32 -15 1 -28 -5 -33 -16z m35 -12 c-1 -11 -8 -22 -15 -25 -10 -4 -12 0 -8 11
3 8 6 20 6 25 0 5 4 9 9 9 6 0 9 -9 8 -20z"/>
<path d="M2059 1388 c0 -2 -3 -18 -6 -37 -4 -29 -2 -31 10 -20 8 8 13 17 11
21 -2 4 0 9 6 13 12 7 4 25 -11 25 -5 0 -9 -1 -10 -2z"/>
<path d="M2092 1353 c-2 -26 0 -35 7 -28 14 14 18 57 6 62 -6 2 -12 -13 -13
-34z"/>
<path d="M2222 1378 c-17 -17 -15 -45 4 -52 25 -10 30 -7 41 17 11 24 7 47 -8
47 -6 0 -9 -6 -8 -12 3 -28 -2 -48 -12 -48 -7 0 -9 11 -5 30 6 34 5 35 -12 18z"/>
<path d="M2372 1365 c-14 -30 -4 -38 55 -40 58 -2 72 8 55 36 -12 19 -12 21 2
16 9 -4 16 -2 16 3 0 12 -20 13 -39 1 -9 -6 -10 -11 -2 -15 22 -14 12 -33 -15
-28 -17 3 -22 8 -15 15 15 15 1 37 -23 37 -14 0 -27 -9 -34 -25z m38 -5 c0
-12 -7 -20 -16 -20 -13 0 -14 3 -5 13 6 8 8 17 4 20 -3 4 -1 7 5 7 7 0 12 -9
12 -20z"/>
<path d="M2632 1357 c-2 -30 0 -33 25 -32 24 1 28 6 31 33 2 18 -1 32 -7 32
-6 0 -10 -3 -10 -7 3 -21 -2 -43 -11 -43 -5 0 -9 10 -7 21 1 12 -3 23 -8 26
-6 2 -12 -12 -13 -30z"/>
<path d="M2728 1379 c-26 -14 -24 -59 2 -59 11 0 20 5 20 11 0 5 -5 7 -10 4
-6 -4 -8 3 -6 17 3 13 5 25 5 28 1 3 5 -2 11 -10 5 -8 12 -11 15 -8 8 7 -2 28
-13 28 -4 0 -15 -5 -24 -11z"/>
<path d="M2783 1377 c2 -7 0 -20 -5 -29 -6 -13 -5 -18 7 -18 13 0 19 11 17 32
-1 3 5 9 13 12 11 4 12 0 5 -19 -10 -27 -1 -38 20 -25 9 5 20 4 29 -3 11 -10
13 -9 9 3 -6 17 8 50 22 50 6 0 6 -9 0 -25 -9 -24 1 -42 18 -31 9 5 8 53 -1
62 -12 12 -55 -6 -60 -26 -7 -28 -25 -25 -20 3 4 21 1 24 -27 25 -20 0 -30 -4
-27 -11z"/>
<path d="M2950 1370 c0 -10 5 -22 10 -25 6 -4 8 -11 5 -16 -4 -5 -1 -9 4 -9
14 0 14 16 1 40 -8 16 -8 18 5 14 8 -4 15 -2 15 3 0 5 -9 9 -20 10 -13 1 -20
-4 -20 -17z"/>
<path d="M3046 1366 c-8 -29 -7 -36 3 -36 5 0 13 9 16 20 3 11 11 20 16 20 6
0 6 -7 0 -19 -8 -14 -7 -20 4 -25 10 -3 16 1 17 14 0 11 1 26 2 33 1 6 -11 12
-26 13 -19 1 -28 -5 -32 -20z"/>
<path d="M3130 1365 c0 -14 0 -28 -1 -32 0 -4 4 -9 9 -11 5 -1 12 13 14 33 3
24 0 35 -9 35 -7 0 -13 -11 -13 -25z"/>
<path d="M3170 1364 c-10 -26 -5 -48 9 -40 8 6 13 66 5 66 -2 0 -9 -12 -14
-26z"/>
<path d="M3215 1368 c-13 -20 -13 -24 0 -37 12 -13 17 -13 27 -2 10 11 10 12
1 7 -17 -9 -18 30 -1 40 7 4 8 3 4 -4 -4 -7 -2 -12 3 -12 6 0 11 4 11 10 0 5
7 7 15 4 11 -4 12 -11 5 -24 -7 -14 -6 -20 7 -24 9 -4 21 -2 27 4 8 8 7 11 -4
8 -15 -3 -16 4 -6 32 5 12 -3 16 -33 17 -32 2 -43 -2 -56 -19z"/>
<path d="M3330 1390 c-8 -26 -7 -41 2 -32 6 6 8 16 5 24 -3 7 -6 11 -7 8z"/>
<path d="M3354 1366 c-20 -31 -16 -37 27 -42 23 -3 30 0 26 10 -3 8 -3 17 1
20 12 13 10 36 -4 36 -8 0 -14 -10 -14 -23 0 -27 -9 -39 -21 -31 -5 3 -4 14 2
25 16 31 3 34 -17 5z"/>
<path d="M3440 1364 c-12 -31 -12 -57 0 -29 8 19 9 19 9 1 1 -16 4 -17 13 -8
10 10 10 17 -1 34 -11 18 -11 20 3 15 9 -4 16 -2 16 3 0 21 -31 9 -40 -16z"/>
<path d="M1052 1262 c-69 -40 -92 -72 -97 -134 -6 -69 34 -130 110 -168 50
-26 115 -15 165 26 87 74 78 187 -21 258 -49 35 -114 42 -157 18z m148 -39
c61 -56 56 -129 -15 -198 -50 -48 -80 -58 -123 -39 -44 18 -61 49 -58 105 2
57 41 113 97 141 46 24 64 23 99 -9z"/>
<path d="M2055 1261 c-3 -11 -7 -28 -9 -38 -2 -10 -5 -22 -6 -28 -4 -18 0 -35
8 -35 5 0 9 6 9 13 0 6 4 33 8 60 7 47 2 64 -10 28z"/>
<path d="M1763 1252 c-3 -12 -11 -22 -18 -22 -22 0 -44 -28 -38 -48 3 -13 14
-19 33 -19 16 0 28 3 28 6 -1 3 2 25 6 49 8 45 0 73 -11 34z m-27 -70 c-14
-14 -16 -14 -16 -1 0 20 23 44 29 28 2 -6 -4 -18 -13 -27z"/>
<path d="M2320 1260 c0 -5 5 -10 11 -10 5 0 7 5 4 10 -3 6 -8 10 -11 10 -2 0
-4 -4 -4 -10z"/>
<path d="M2643 1256 c2 -6 -2 -24 -8 -41 -13 -31 -10 -55 6 -55 5 0 8 10 8 23
-1 12 3 36 9 53 8 24 7 31 -4 31 -8 0 -13 -5 -11 -11z"/>
<path d="M3046 1245 c-4 -15 -11 -22 -19 -19 -18 7 -40 -20 -35 -43 2 -13 12
-18 32 -18 24 1 30 6 32 25 1 14 6 37 9 53 5 16 3 27 -3 27 -5 0 -13 -11 -16
-25z m-18 -58 c-7 -14 -13 -17 -16 -9 -6 19 6 44 18 37 7 -4 6 -14 -2 -28z"/>
<path d="M3170 1252 c0 -12 4 -22 9 -22 10 0 9 26 -2 36 -4 4 -7 -2 -7 -14z"/>
<path d="M3200 1263 c0 -5 5 -15 10 -23 8 -12 10 -11 10 8 0 12 -4 22 -10 22
-5 0 -10 -3 -10 -7z"/>
<path d="M2385 1250 c-3 -6 1 -7 9 -4 18 7 21 14 7 14 -6 0 -13 -4 -16 -10z"/>
<path d="M1802 1218 c-15 -15 -16 -45 -1 -54 6 -3 16 -1 22 6 9 10 9 11 0 6
-6 -3 -14 -2 -18 4 -3 5 0 10 8 10 17 0 39 24 30 33 -3 4 -12 -1 -20 -11 -14
-16 -14 -16 -9 1 6 20 4 21 -12 5z"/>
<path d="M1903 1214 c-3 -9 0 -20 8 -25 13 -8 5 -14 -16 -9 -5 1 -6 -2 -2 -6
28 -28 52 6 25 35 -11 11 -10 13 5 8 9 -4 17 -2 17 3 0 16 -30 11 -37 -6z"/>
<path d="M1960 1215 c-13 -16 -10 -47 5 -52 6 -2 11 9 10 23 0 15 5 29 11 31
7 2 9 -8 6 -27 -3 -21 0 -30 9 -30 9 0 14 12 14 35 1 29 -3 35 -21 35 -12 0
-27 -7 -34 -15z"/>
<path d="M2074 1218 c-3 -4 4 -8 15 -8 12 0 21 4 21 8 0 5 -7 9 -15 9 -9 0
-18 -4 -21 -9z"/>
<path d="M2130 1225 c-1 -5 -2 -14 -1 -19 3 -13 -20 -36 -30 -30 -5 3 -7 10
-4 15 4 5 1 9 -4 9 -14 0 -14 -27 0 -36 16 -10 52 30 46 52 -3 11 -6 15 -7 9z"/>
<path d="M2161 1217 c-14 -14 -14 -57 -1 -57 6 0 10 11 10 24 0 14 5 28 11 32
8 5 10 -1 7 -19 -5 -26 15 -46 27 -27 4 6 1 10 -5 10 -7 0 -8 6 0 19 5 11 10
22 10 24 0 9 -49 4 -59 -6z"/>
<path d="M2248 1219 c-10 -5 -18 -18 -18 -28 0 -23 29 -36 44 -21 8 8 6 9 -6
5 -14 -5 -18 -2 -18 13 0 12 5 24 10 27 6 3 10 1 10 -5 0 -6 5 -8 10 -5 14 9
12 25 -2 25 -7 0 -21 -5 -30 -11z"/>
<path d="M2309 1228 c0 -2 -2 -15 -4 -30 -4 -32 4 -41 25 -27 8 5 10 9 4 9 -7
0 -9 11 -6 25 2 15 0 25 -7 25 -6 0 -11 -1 -12 -2z"/>
<path d="M2357 1212 c-14 -15 -15 -21 -4 -36 12 -16 13 -16 14 5 1 12 7 27 14
33 9 8 10 3 5 -23 -5 -29 -4 -32 9 -21 20 16 16 54 -6 58 -8 1 -23 -6 -32 -16z"/>
<path d="M2435 1222 c-10 -7 -13 -47 -5 -56 3 -2 10 6 16 19 12 25 5 48 -11
37z"/>
<path d="M2463 1195 c-2 -24 1 -33 10 -30 16 7 20 65 4 65 -7 0 -13 -16 -14
-35z"/>
<path d="M2550 1204 c-13 -33 -7 -41 26 -40 22 1 27 6 30 34 3 28 1 32 -21 32
-18 0 -28 -8 -35 -26z m40 4 c0 -7 -4 -19 -9 -27 -11 -17 -23 1 -15 23 7 19
24 21 24 4z"/>
<path d="M2719 1228 c0 -2 -2 -19 -4 -38 l-4 -35 19 24 c17 24 17 51 -1 51 -5
0 -9 -1 -10 -2z"/>
<path d="M2752 1194 c-1 -20 3 -32 8 -29 6 3 10 15 10 26 0 10 4 19 9 19 4 0
8 -8 7 -17 -2 -30 18 -25 21 5 3 26 1 29 -25 30 -26 0 -29 -3 -30 -34z"/>
<path d="M2832 1195 c-2 -19 2 -35 8 -35 5 0 10 11 10 25 0 14 0 28 1 32 0 4
-3 9 -8 10 -5 2 -10 -13 -11 -32z"/>
<path d="M2869 1210 c-1 -11 -2 -24 -3 -30 -2 -25 20 -8 25 19 5 23 3 31 -7
31 -8 0 -15 -9 -15 -20z"/>
<path d="M2919 1223 c0 -5 -2 -21 -4 -36 -3 -24 -1 -26 11 -16 16 13 19 59 4
59 -5 0 -10 -3 -11 -7z"/>
<path d="M2954 1200 c1 -41 18 -43 21 -2 2 20 -2 32 -10 32 -7 0 -12 -12 -11
-30z"/>
<path d="M3080 1211 c-7 -13 -7 -27 -2 -37 7 -13 10 -9 16 16 8 40 2 49 -14
21z"/>
<path d="M3115 1211 c3 -11 1 -22 -5 -26 -15 -9 -12 -25 4 -19 18 7 27 29 20
49 -9 22 -26 18 -19 -4z"/>
<path d="M3689 1207 c-54 -46 -62 -91 -26 -133 22 -25 30 -27 104 -28 109 -1
142 -31 93 -84 -24 -25 -24 -25 -68 -13 l-33 10 23 -24 c30 -32 48 -31 85 3
35 32 47 62 38 100 -11 47 -49 66 -136 66 -90 1 -108 11 -93 53 8 24 15 28 46
28 35 0 36 1 24 19 -18 28 -28 29 -57 3z"/>
<path d="M3541 1076 c-6 -7 -38 -31 -71 -51 -60 -37 -74 -50 -45 -38 18 6 20
4 111 -125 47 -67 63 -99 59 -113 -6 -17 1 -14 41 13 27 18 57 41 68 51 11 9
23 17 28 17 14 0 9 37 -7 50 -12 10 -14 8 -10 -9 4 -24 -47 -66 -69 -58 -8 3
-28 26 -45 50 -26 39 -29 47 -16 57 8 7 15 9 15 6 0 -4 7 -1 15 8 9 8 22 13
31 9 13 -5 13 -2 2 22 -9 21 -14 24 -23 13 -17 -23 -67 -50 -74 -41 -43 51
-61 83 -47 83 9 0 16 4 16 8 0 16 47 31 59 19 14 -14 14 -2 1 24 -13 23 -23
24 -39 5z"/>
<path d="M1371 1043 c-22 -11 -34 -25 -39 -47 -8 -41 -8 -43 7 -103 15 -60 5
-89 -35 -99 -43 -11 -83 53 -52 84 7 7 8 12 3 12 -6 0 -20 -11 -33 -24 l-22
-24 25 -30 c43 -51 112 -59 153 -18 28 28 31 60 13 138 -21 85 4 120 57 81 21
-15 26 -27 23 -49 l-3 -29 20 25 c17 21 18 27 7 43 -12 18 -40 35 -76 49 -9 3
-30 -1 -48 -9z"/>
<path d="M3288 910 c-22 -7 -87 -41 -107 -57 -3 -2 3 -9 11 -16 9 -6 42 -62
74 -124 51 -99 56 -114 43 -129 -10 -12 3 -9 41 11 56 28 78 43 48 32 -18 -6
-38 12 -62 59 -14 28 -14 33 -1 44 13 10 28 7 83 -18 70 -33 91 -34 139 -8
l28 16 -30 -3 c-16 -1 -62 11 -101 28 -71 29 -71 30 -62 57 12 35 4 72 -22 98
-21 21 -38 23 -82 10z m61 -71 c24 -42 18 -69 -18 -89 -22 -11 -26 -7 -60 62
-28 56 -19 77 27 70 21 -3 35 -15 51 -43z"/>
<path d="M1653 898 c15 -12 13 -21 -24 -103 -56 -127 -76 -160 -94 -158 -26 2
-10 -8 73 -48 70 -34 79 -36 95 -21 22 19 23 36 1 24 -21 -12 -59 -4 -78 17
-13 14 -12 20 4 56 11 22 19 46 20 53 0 17 26 15 56 -4 16 -11 23 -23 19 -33
-3 -9 3 -5 14 9 23 29 20 35 -16 45 -50 12 -54 22 -30 71 11 24 27 44 34 44
24 0 64 -32 59 -46 -9 -25 10 -15 22 10 10 22 8 26 -11 32 -12 4 -49 20 -81
35 -62 30 -92 38 -63 17z"/>
<path d="M1886 812 c2 -3 -1 -11 -7 -19 -6 -7 -9 -13 -6 -13 3 0 -8 -39 -24
-87 -16 -49 -29 -88 -28 -88 7 0 -16 -53 -29 -67 -13 -16 -13 -18 9 -26 13 -5
30 -7 37 -5 6 3 12 -1 12 -8 0 -7 3 -9 6 -6 4 4 1 14 -6 22 -11 13 -11 26 0
73 7 31 16 62 19 67 3 6 7 19 8 29 4 21 11 32 16 25 2 -2 31 -56 65 -119 33
-63 67 -124 76 -135 14 -19 14 -19 24 5 6 14 26 76 44 139 24 83 38 115 52
120 13 5 16 10 8 15 -7 4 -12 5 -12 2 0 -3 -19 1 -42 9 -38 13 -41 13 -24 0
19 -15 19 -16 2 -92 -10 -43 -22 -82 -26 -88 -8 -9 -9 -15 -10 -32 -1 -5 -9 8
-19 27 -66 129 -125 237 -135 246 -7 6 -11 9 -10 6z"/>
<path d="M3050 813 c-8 -2 -24 -8 -35 -13 -11 -5 -36 -14 -55 -19 -23 -6 -27
-10 -14 -10 19 -1 44 -38 50 -76 1 -5 9 -31 18 -56 8 -25 17 -55 19 -67 2 -12
6 -25 10 -28 12 -12 8 -54 -5 -54 -6 0 -9 -2 -6 -5 6 -6 99 24 113 37 6 6 4 7
-6 3 -24 -9 -39 17 -76 128 -38 119 -40 137 -14 137 32 0 51 -11 66 -39 17
-33 14 -55 -8 -81 -12 -15 -13 -20 -4 -20 23 0 58 45 64 83 9 61 -51 102 -117
80z"/>
<path d="M2714 729 c-16 -7 -17 -8 -2 -8 23 -1 27 -17 43 -171 7 -68 -8 -101
-53 -112 -24 -7 -40 -5 -61 8 -29 17 -36 34 -47 119 -3 22 -9 56 -13 75 -9 43
-3 73 11 64 6 -4 8 -2 4 4 -3 6 -19 8 -34 5 -15 -3 -35 -6 -44 -7 -24 -3 -36
-16 -15 -16 9 0 17 -3 18 -7 0 -5 2 -17 4 -28 3 -11 6 -41 9 -67 13 -132 57
-189 137 -180 44 6 68 16 92 40 26 26 29 35 28 93 0 35 -5 89 -10 119 -8 47
-7 57 7 68 15 11 12 13 -19 10 -20 -1 -45 -5 -55 -9z"/>
<path d="M2349 709 c-26 -10 -47 -42 -43 -66 1 -7 2 -20 3 -29 0 -9 26 -40 56
-69 56 -54 63 -71 44 -106 -21 -40 -115 -2 -102 41 4 13 4 13 -6 0 -15 -20
-14 -55 2 -67 21 -17 90 -14 123 6 61 37 48 112 -30 177 -34 28 -46 45 -46 65
0 46 57 54 88 12 l19 -26 -1 34 c-1 32 -3 33 -41 36 -22 1 -52 -2 -66 -8z"/>
</g>
</svg>
